# Created by FreeCAD <http://www.freecadweb.org>
v -5000.000000 5000.000000 -7500.000000
v 0.000000 5000.000000 -7500.000000
v -5000.000000 0.000000 -7500.000000
v 0.000000 0.000000 -7500.000000
v -5000.000000 5000.000000 7500.000000
v -5000.000000 0.000000 7500.000000
v 5000.000000 5000.000000 7500.000000
v 5000.000000 0.000000 7500.000000
v 5000.000000 5000.000000 2500.000000
v 5000.000000 0.000000 2500.000000
v 0.000000 5000.000000 2500.000000
v 0.000000 0.000000 2500.000000
vn 0.000000 0.000000 -1.000000
vn 0.000000 0.000000 -1.000000
vn -1.000000 -0.000000 0.000000
vn -1.000000 0.000000 -0.000000
vn 0.000000 0.000000 1.000000
vn 0.000000 0.000000 1.000000
vn 1.000000 0.000000 -0.000000
vn 1.000000 0.000000 0.000000
vn 0.000000 0.000000 -1.000000
vn 0.000000 0.000000 -1.000000
vn 1.000000 0.000000 -0.000000
vn 1.000000 0.000000 0.000000
vn 0.000000 1.000000 0.000000
vn 0.000000 1.000000 0.000000
vn 0.000000 1.000000 0.000000
vn 0.000000 1.000000 0.000000
vn 0.000000 -1.000000 0.000000
vn -0.000000 -1.000000 0.000000
vn 0.000000 -1.000000 0.000000
vn 0.000000 -1.000000 0.000000
f 1//1 2//1 3//1
f 3//2 2//2 4//2
f 5//3 3//3 6//3
f 5//4 1//4 3//4
f 7//5 5//5 8//5
f 8//6 5//6 6//6
f 9//7 7//7 10//7
f 10//8 7//8 8//8
f 11//9 9//9 12//9
f 12//10 9//10 10//10
f 2//11 11//11 4//11
f 4//12 11//12 12//12
f 11//13 2//13 1//13
f 5//14 11//14 1//14
f 7//15 9//15 11//15
f 7//16 11//16 5//16
f 4//17 12//17 3//17
f 12//18 6//18 3//18
f 10//19 8//19 12//19
f 12//20 8//20 6//20
