# Created by FreeCAD <http://www.freecadweb.org>
v 0.000000 5000.000000 -7500.000000
v 5000.000000 5000.000000 -7500.000000
v 0.000000 0.000000 -7500.000000
v 5000.000000 0.000000 -7500.000000
v 0.000000 5000.000000 -2500.000000
v 0.000000 0.000000 -2500.000000
v -5000.000000 5000.000000 -2500.000000
v -5000.000000 0.000000 -2500.000000
v -5000.000000 5000.000000 7500.000000
v -5000.000000 0.000000 7500.000000
v 0.000000 5000.000000 7500.000000
v 0.000000 0.000000 7500.000000
v 0.000000 5000.000000 2500.000000
v 0.000000 0.000000 2500.000000
v 5000.000000 5000.000000 2500.000000
v 5000.000000 0.000000 2500.000000
vn 0.000000 0.000000 -1.000000
vn 0.000000 0.000000 -1.000000
vn -1.000000 0.000000 0.000000
vn -1.000000 0.000000 0.000000
vn 0.000000 0.000000 -1.000000
vn 0.000000 0.000000 -1.000000
vn -1.000000 -0.000000 -0.000000
vn -1.000000 0.000000 0.000000
vn 0.000000 0.000000 1.000000
vn 0.000000 0.000000 1.000000
vn 1.000000 0.000000 0.000000
vn 1.000000 0.000000 0.000000
vn 0.000000 0.000000 1.000000
vn 0.000000 0.000000 1.000000
vn 1.000000 0.000000 -0.000000
vn 1.000000 0.000000 0.000000
vn 0.000000 1.000000 0.000000
vn 0.000000 1.000000 0.000000
vn 0.000000 1.000000 0.000000
vn 0.000000 1.000000 0.000000
vn 0.000000 1.000000 0.000000
vn 0.000000 1.000000 0.000000
vn 0.000000 -1.000000 0.000000
vn 0.000000 -1.000000 0.000000
vn -0.000000 -1.000000 0.000000
vn 0.000000 -1.000000 0.000000
vn 0.000000 -1.000000 0.000000
vn 0.000000 -1.000000 0.000000
f 1//1 2//1 3//1
f 3//2 2//2 4//2
f 5//3 1//3 6//3
f 6//4 1//4 3//4
f 7//5 5//5 8//5
f 8//6 5//6 6//6
f 9//7 7//7 10//7
f 10//8 7//8 8//8
f 11//9 9//9 12//9
f 12//10 9//10 10//10
f 13//11 11//11 14//11
f 14//12 11//12 12//12
f 15//13 13//13 16//13
f 16//14 13//14 14//14
f 2//15 15//15 4//15
f 4//16 15//16 16//16
f 2//17 1//17 5//17
f 13//18 5//18 7//18
f 9//19 13//19 7//19
f 11//20 13//20 9//20
f 15//21 2//21 5//21
f 15//22 5//22 13//22
f 3//23 4//23 6//23
f 6//24 14//24 8//24
f 14//25 10//25 8//25
f 14//26 12//26 10//26
f 4//27 16//27 6//27
f 6//28 16//28 14//28
