# Created by FreeCAD <http://www.freecadweb.org>
v 125000.000000 10.000000 -125000.000000
v 125000.000000 10.000000 125000.000000
v 125000.000000 0.000000 -125000.000000
v 125000.000000 0.000000 125000.000000
v -125000.000000 10.000000 -125000.000000
v -125000.000000 0.000000 -125000.000000
v -125000.000000 10.000000 125000.000000
v -125000.000000 0.000000 125000.000000
vn 1.000000 0.000000 -0.000000
vn 1.000000 0.000000 0.000000
vn 0.000000 0.000000 -1.000000
vn 0.000000 0.000000 -1.000000
vn -1.000000 -0.000000 -0.000000
vn -1.000000 0.000000 0.000000
vn 0.000000 0.000000 1.000000
vn 0.000000 0.000000 1.000000
vn 0.000000 1.000000 0.000000
vn 0.000000 1.000000 0.000000
vn 0.000000 -1.000000 0.000000
vn 0.000000 -1.000000 0.000000
f 1//1 2//1 3//1
f 3//2 2//2 4//2
f 5//3 1//3 6//3
f 6//4 1//4 3//4
f 7//5 5//5 8//5
f 8//6 5//6 6//6
f 2//7 7//7 4//7
f 4//8 7//8 8//8
f 7//9 1//9 5//9
f 2//10 1//10 7//10
f 3//11 8//11 6//11
f 3//12 4//12 8//12
